<svg xmlns="http://www.w3.org/2000/svg" width="607" height="506" viewBox="97 429 607 506" preserveAspectRatio="xMidYMid meet">
  <path d="M 154 810 L 154 813 L 157 813 L 170 817 L 174 817 L 182 820 L 185 820 L 210 827 L 216 827 L 216 810 Z M 675 694 L 675 709 L 674 710 L 659 710 L 659 725 L 674 725 L 675 726 L 675 742 L 688 742 L 688 726 L 689 725 L 704 725 L 704 710 L 689 710 L 688 709 L 688 698 L 689 697 L 689 694 Z M 585 676 L 585 781 L 604 781 L 604 751 L 605 750 L 604 748 L 604 741 L 605 740 L 614 740 L 615 741 L 628 781 L 649 781 L 633 738 L 633 735 L 641 729 L 646 719 L 646 715 L 647 714 L 647 701 L 643 688 L 641 685 L 636 681 L 626 677 L 621 677 L 620 676 Z M 606 692 L 619 692 L 625 697 L 627 701 L 627 714 L 625 719 L 620 723 L 617 724 L 606 724 L 604 722 L 604 694 Z M 519 676 L 519 782 L 520 781 L 573 781 L 573 765 L 540 765 L 539 764 L 539 736 L 540 735 L 567 735 L 567 719 L 540 719 L 539 718 L 539 693 L 540 692 L 572 692 L 572 676 Z M 485 676 L 485 781 L 503 781 L 503 686 L 504 685 L 504 677 L 503 676 Z M 414 676 L 414 692 L 433 692 L 434 693 L 434 781 L 453 781 L 453 693 L 454 692 L 474 692 L 474 676 Z M 339 676 L 339 781 L 357 781 L 357 721 L 358 720 L 360 721 L 361 726 L 365 733 L 367 740 L 370 745 L 370 747 L 373 752 L 373 754 L 376 759 L 376 761 L 385 781 L 403 781 L 403 697 L 404 696 L 404 677 L 403 676 L 386 676 L 385 677 L 385 695 L 386 696 L 386 703 L 385 704 L 385 729 L 386 732 L 385 733 L 386 735 L 384 736 L 380 729 L 380 727 L 377 722 L 377 720 L 374 715 L 372 708 L 368 701 L 368 699 L 365 694 L 365 692 L 362 687 L 358 676 Z M 219 886 L 245 886 L 247 876 L 248 875 L 248 871 L 251 862 L 251 858 L 254 849 L 254 845 L 256 841 L 257 832 L 259 827 L 544 827 L 545 826 L 549 826 L 550 825 L 561 823 L 572 819 L 580 818 L 581 817 L 592 815 L 596 813 L 600 813 L 600 810 L 264 810 L 263 809 L 263 805 L 267 792 L 267 788 L 269 783 L 269 779 L 271 774 L 273 762 L 275 758 L 302 758 L 304 760 L 305 769 L 309 782 L 310 781 L 329 781 L 326 767 L 322 756 L 319 741 L 317 737 L 316 730 L 309 708 L 306 693 L 304 689 L 302 678 L 301 676 L 277 676 L 273 687 L 272 694 L 270 698 L 269 705 L 267 709 L 266 716 L 261 731 L 259 742 L 253 760 L 251 771 L 249 775 L 248 782 L 244 793 L 242 804 L 238 815 L 237 822 L 235 826 L 234 833 L 230 844 L 229 851 L 227 855 L 225 866 L 223 870 L 223 873 L 221 877 Z M 288 697 L 290 698 L 290 701 L 291 702 L 295 726 L 299 740 L 298 743 L 279 743 L 278 742 L 280 735 L 280 731 L 282 726 L 283 717 L 285 712 L 285 708 L 287 703 L 287 698 Z M 122 675 L 115 677 L 108 681 L 102 688 L 98 698 L 98 703 L 97 704 L 97 753 L 98 754 L 98 760 L 100 766 L 104 773 L 108 777 L 119 782 L 133 783 L 134 782 L 143 781 L 150 777 L 154 773 L 159 763 L 160 747 L 161 746 L 160 745 L 142 745 L 141 757 L 139 762 L 135 766 L 127 767 L 124 766 L 119 761 L 117 756 L 117 701 L 119 696 L 123 692 L 125 691 L 134 691 L 140 698 L 141 701 L 141 710 L 142 711 L 151 711 L 152 710 L 160 710 L 160 699 L 156 687 L 146 678 L 137 675 Z M 237 653 L 218 673 L 218 717 L 217 718 L 193 718 L 192 717 L 192 676 L 173 676 L 173 781 L 192 781 L 192 736 L 193 735 L 217 735 L 218 736 L 218 782 L 221 782 L 222 781 L 237 781 Z" fill="#010101" fill-rule="evenodd"/>
  <path d="M 350 659 L 351 660 L 355 657 L 357 657 L 361 660 L 362 658 L 358 655 L 354 655 L 351 657 Z M 344 657 L 346 657 L 349 655 L 355 648 L 358 648 L 364 654 L 369 656 L 369 654 L 365 652 L 360 648 L 359 646 L 354 646 Z M 519 640 L 519 643 L 525 648 L 534 652 L 541 654 L 545 654 L 546 655 L 573 655 L 574 654 L 578 654 L 585 652 L 595 647 L 599 644 L 600 642 L 599 640 L 597 640 L 588 644 L 585 644 L 580 646 L 574 646 L 573 647 L 546 647 L 545 646 L 534 645 Z M 341 635 L 337 638 L 331 640 L 331 642 L 336 641 Z M 355 622 L 354 623 L 354 630 L 351 639 L 347 645 L 340 650 L 338 653 L 340 653 L 346 649 L 352 641 L 356 629 L 356 623 Z M 351 616 L 348 619 L 347 622 L 347 630 L 343 640 L 337 645 L 334 646 L 334 648 L 339 646 L 344 642 L 348 634 L 349 622 L 352 618 L 355 617 L 357 618 L 361 623 L 361 629 L 359 635 L 361 642 L 365 647 L 372 651 L 374 651 L 375 650 L 374 649 L 370 648 L 366 645 L 362 640 L 361 634 L 362 633 L 362 620 L 361 618 L 358 616 Z M 329 635 L 329 636 L 335 635 L 341 630 L 343 623 L 343 619 L 349 612 L 358 611 L 362 613 L 366 618 L 367 621 L 367 631 L 366 632 L 366 635 L 368 640 L 371 643 L 378 645 L 378 643 L 374 642 L 371 640 L 368 634 L 369 622 L 366 614 L 361 610 L 358 609 L 352 609 L 347 611 L 343 615 L 341 619 L 341 625 L 339 629 L 336 632 Z M 431 608 L 432 610 L 431 649 L 432 650 L 451 650 L 452 649 L 455 649 L 456 650 L 482 650 L 483 649 L 483 608 L 462 608 L 463 611 L 463 621 L 462 622 L 456 622 L 456 623 L 462 623 L 463 624 L 463 628 L 462 629 L 457 629 L 457 630 L 469 630 L 469 629 L 465 629 L 464 628 L 464 610 L 465 609 L 480 609 L 482 611 L 482 628 L 480 630 L 475 630 L 480 630 L 482 632 L 482 639 L 480 641 L 466 641 L 466 647 L 465 648 L 450 648 L 449 647 L 449 640 L 448 640 L 448 647 L 447 648 L 434 648 L 433 647 L 433 632 L 434 631 L 442 631 L 442 630 L 434 630 L 433 629 L 433 610 L 434 609 L 447 609 L 448 610 L 448 616 L 449 616 L 449 610 L 452 609 L 452 608 Z M 467 643 L 468 642 L 481 642 L 482 643 L 482 647 L 481 648 L 468 648 L 467 647 Z M 328 628 L 328 629 L 330 629 L 335 626 L 337 616 L 342 609 L 349 605 L 357 604 L 365 607 L 371 613 L 373 618 L 373 633 L 376 637 L 381 637 L 381 636 L 378 635 L 375 632 L 375 619 L 372 611 L 367 606 L 357 602 L 349 603 L 344 605 L 337 612 L 335 617 L 334 624 Z M 328 619 L 330 619 L 333 610 L 335 607 L 342 601 L 349 598 L 360 598 L 369 602 L 377 610 L 380 618 L 380 625 L 382 625 L 382 619 L 378 608 L 370 600 L 360 596 L 349 596 L 340 600 L 334 605 L 330 611 Z M 523 627 L 523 636 L 529 639 L 537 640 L 538 641 L 543 641 L 544 642 L 575 642 L 581 640 L 586 640 L 596 636 L 595 625 L 592 616 L 589 611 L 582 604 L 576 600 L 574 601 L 570 624 L 569 625 L 566 624 L 567 611 L 569 604 L 569 595 L 566 595 L 565 594 L 553 594 L 549 596 L 549 602 L 551 609 L 551 617 L 552 618 L 552 624 L 551 625 L 548 624 L 547 615 L 545 609 L 545 604 L 544 603 L 544 600 L 543 600 L 534 606 L 529 612 L 525 620 Z M 410 594 L 409 597 L 409 608 L 410 609 L 409 641 L 410 642 L 410 653 L 413 657 L 419 659 L 492 659 L 492 599 L 463 599 L 464 601 L 489 601 L 490 602 L 490 656 L 489 657 L 418 657 L 413 653 L 412 648 L 416 644 L 421 643 L 421 602 L 422 601 L 457 601 L 455 599 L 422 599 L 421 598 L 421 589 L 414 590 Z M 335 596 L 335 597 L 337 597 L 341 594 L 349 591 L 360 591 L 374 597 L 374 595 L 371 593 L 359 589 L 346 590 L 339 593 Z" fill="#3b3e3d" fill-rule="evenodd"/>
  <path d="M 358 721 L 358 752 L 358 726 L 360 725 L 358 724 L 359 722 Z M 337 634 L 336 635 L 337 637 L 338 636 Z M 465 610 L 480 610 L 481 611 L 481 628 L 480 629 L 475 629 L 475 631 L 480 631 L 481 632 L 481 639 L 480 640 L 466 640 L 480 640 L 481 639 L 481 632 L 480 631 L 481 628 L 481 611 L 480 610 Z" fill="#7f7b74" fill-rule="evenodd"/>
  <path d="M 185 917 L 185 932 L 280 932 L 280 918 L 279 917 L 242 917 L 241 916 L 236 916 L 235 917 L 218 917 L 217 916 L 190 917 L 189 916 L 186 916 Z M 199 888 L 199 907 L 200 909 L 203 910 L 210 910 L 211 909 L 235 909 L 238 910 L 239 909 L 265 909 L 266 908 L 266 889 L 262 887 L 253 887 L 252 888 L 247 888 L 246 887 L 239 887 L 238 888 L 201 887 Z M 257 840 L 257 843 L 510 843 L 511 842 L 511 837 L 510 836 L 258 836 L 258 839 Z M 265 804 L 265 807 L 266 808 L 559 808 L 560 807 L 576 807 L 577 808 L 593 808 L 596 807 L 597 808 L 600 807 L 600 801 L 267 801 Z M 145 552 L 145 583 L 152 583 L 152 552 Z M 126 552 L 126 581 L 127 583 L 139 583 L 139 580 L 140 579 L 140 575 L 139 574 L 139 552 Z M 114 552 L 114 583 L 120 583 L 121 582 L 121 552 Z M 562 540 L 529 518 L 521 514 L 490 514 L 486 512 L 479 511 L 465 506 L 462 506 L 440 499 L 437 499 L 427 495 L 420 494 L 399 487 L 395 487 L 391 485 L 388 485 L 375 480 L 354 475 L 344 471 L 337 470 L 327 466 L 324 466 L 309 461 L 298 459 L 288 455 L 285 455 L 281 453 L 278 453 L 274 451 L 263 449 L 246 443 L 243 443 L 238 441 L 236 439 L 236 436 L 234 433 L 232 432 L 226 433 L 223 437 L 223 441 L 218 446 L 198 461 L 192 467 L 183 473 L 172 483 L 163 489 L 157 495 L 146 504 L 142 506 L 126 520 L 119 524 L 107 524 L 107 546 L 206 546 L 209 548 L 209 678 L 210 679 L 236 652 L 239 653 L 239 782 L 238 783 L 218 783 L 217 784 L 217 800 L 216 801 L 154 801 L 154 808 L 216 808 L 217 809 L 217 812 L 218 813 L 217 815 L 217 827 L 218 828 L 218 837 L 217 838 L 217 850 L 218 851 L 217 877 L 218 878 L 218 881 L 222 871 L 223 864 L 225 860 L 226 853 L 228 849 L 229 842 L 234 827 L 236 816 L 238 812 L 242 794 L 244 790 L 244 785 L 246 783 L 250 765 L 253 757 L 253 596 L 256 594 L 263 594 L 268 591 L 271 587 L 271 564 L 268 558 L 261 548 L 262 546 L 437 546 L 439 549 L 439 554 L 446 554 L 447 555 L 448 567 L 449 568 L 449 586 L 458 601 L 458 604 L 457 605 L 452 605 L 452 607 L 454 608 L 454 610 L 461 610 L 461 608 L 464 607 L 464 602 L 462 600 L 462 598 L 460 597 L 459 594 L 465 585 L 465 581 L 463 578 L 465 556 L 467 554 L 473 554 L 474 553 L 474 549 L 477 546 L 562 546 L 563 543 Z M 218 644 L 227 652 L 227 654 L 219 661 L 217 660 L 217 657 L 216 656 L 216 649 Z M 222 640 L 222 638 L 224 636 L 240 636 L 241 637 L 241 639 L 232 648 L 229 647 Z M 222 627 L 230 619 L 232 619 L 241 629 L 240 630 L 232 630 L 230 631 L 229 630 L 223 630 Z M 243 605 L 245 606 L 245 622 L 244 623 L 235 615 L 235 613 Z M 218 605 L 219 605 L 227 614 L 219 623 L 216 621 L 216 607 Z M 221 599 L 222 598 L 239 598 L 240 599 L 240 602 L 233 609 L 230 610 L 222 602 Z M 459 553 L 463 555 L 461 578 L 455 580 L 451 578 L 451 568 L 450 567 L 449 555 L 454 553 Z M 239 552 L 242 550 L 255 550 L 263 560 L 266 566 L 266 570 L 262 572 L 240 572 L 239 571 Z M 183 532 L 186 531 L 192 534 L 195 538 L 194 539 L 184 539 L 183 538 Z M 141 529 L 144 530 L 144 538 L 143 539 L 141 539 L 139 536 L 139 533 Z M 123 529 L 126 531 L 126 538 L 125 539 L 122 538 L 122 535 L 121 534 Z M 152 532 L 154 529 L 161 529 L 162 528 L 177 529 L 178 530 L 178 538 L 174 540 L 171 540 L 170 539 L 154 539 L 152 536 Z M 522 524 L 523 523 L 527 524 L 532 528 L 542 533 L 546 538 L 542 540 L 523 539 L 522 538 Z M 518 524 L 518 538 L 514 540 L 503 540 L 500 538 L 511 526 L 515 523 Z M 288 524 L 289 523 L 292 524 L 300 531 L 306 538 L 305 539 L 289 539 L 288 538 Z M 283 524 L 283 538 L 282 539 L 264 539 L 263 537 L 273 528 L 281 523 Z M 440 537 L 456 522 L 459 521 L 467 527 L 477 538 L 474 540 L 469 540 L 468 539 L 441 539 Z M 381 537 L 395 523 L 398 521 L 400 521 L 411 530 L 418 538 L 417 539 L 382 539 Z M 325 537 L 340 522 L 343 521 L 356 533 L 359 538 L 354 540 L 338 540 L 337 539 L 326 539 Z M 468 521 L 469 520 L 508 520 L 509 522 L 491 538 L 487 539 L 477 531 Z M 409 521 L 410 520 L 443 519 L 444 520 L 448 520 L 449 522 L 430 539 L 427 539 L 417 530 Z M 352 523 L 354 520 L 357 520 L 358 519 L 388 520 L 389 522 L 372 538 L 368 538 Z M 333 521 L 333 522 L 316 538 L 313 538 L 303 529 L 297 522 L 298 520 L 320 520 L 321 519 L 329 519 Z M 241 520 L 243 527 L 243 532 L 244 533 L 244 538 L 243 539 L 220 539 L 219 537 L 237 520 L 239 519 Z M 225 500 L 233 508 L 237 514 L 225 526 L 220 529 L 219 528 L 219 523 L 220 522 L 222 501 Z M 232 478 L 235 480 L 235 484 L 236 485 L 236 492 L 237 493 L 237 499 L 238 500 L 238 504 L 237 505 L 224 493 L 224 488 L 227 486 L 227 483 L 229 482 Z M 192 474 L 187 481 L 146 523 L 144 524 L 140 524 L 139 523 L 135 524 L 130 522 L 130 521 L 137 515 L 142 512 L 177 483 L 186 477 L 190 473 Z M 230 461 L 232 465 L 232 471 L 231 473 L 228 475 L 227 474 L 227 468 L 228 467 L 228 462 Z M 273 457 L 275 456 L 276 457 L 283 458 L 294 462 L 305 464 L 315 468 L 333 472 L 343 476 L 347 476 L 351 478 L 361 480 L 368 483 L 371 483 L 374 485 L 386 487 L 392 490 L 395 490 L 406 494 L 409 494 L 421 498 L 424 498 L 431 501 L 446 504 L 449 506 L 461 510 L 464 510 L 465 512 L 459 514 L 392 514 L 373 505 L 371 505 L 365 501 L 354 497 L 332 486 L 330 486 L 320 481 L 318 479 L 316 479 L 309 475 L 298 471 L 274 459 Z M 221 452 L 222 453 L 221 466 L 219 471 L 219 478 L 217 485 L 217 493 L 216 494 L 216 500 L 215 501 L 214 511 L 213 512 L 213 519 L 211 525 L 211 533 L 209 537 L 206 537 L 184 524 L 156 524 L 155 521 L 157 518 L 177 498 L 211 461 Z M 238 449 L 239 448 L 243 449 L 265 460 L 272 462 L 283 468 L 285 468 L 296 474 L 298 474 L 308 480 L 310 480 L 336 493 L 338 493 L 374 510 L 375 513 L 374 514 L 304 514 L 303 513 L 301 514 L 283 514 L 262 529 L 254 536 L 252 536 L 250 534 L 250 528 L 249 527 L 248 517 L 247 516 L 247 510 L 246 509 L 246 503 L 245 502 L 244 490 L 242 483 L 242 477 L 241 476 L 239 460 L 238 459 Z" fill="#e49f2f" fill-rule="evenodd"/>
  <path d="M 182 916 L 182 918 L 184 919 L 184 932 L 185 933 L 189 933 L 190 935 L 201 935 L 202 933 L 218 933 L 219 935 L 235 935 L 236 933 L 252 933 L 253 935 L 269 935 L 271 933 L 281 933 L 281 919 L 283 918 L 283 915 L 282 914 L 270 914 L 269 916 L 253 916 L 252 915 L 252 911 L 253 910 L 266 910 L 266 909 L 265 910 L 239 910 L 238 911 L 235 910 L 211 910 L 210 911 L 203 911 L 200 910 L 199 908 L 199 910 L 202 911 L 202 915 L 201 916 L 190 916 L 189 914 L 184 914 Z M 184 916 L 185 915 L 189 915 L 190 916 L 202 916 L 203 915 L 205 916 L 208 915 L 217 915 L 218 916 L 235 916 L 236 915 L 241 915 L 242 916 L 279 916 L 281 918 L 281 932 L 280 933 L 185 933 L 184 932 Z M 217 911 L 218 910 L 235 910 L 236 911 L 236 915 L 235 916 L 218 916 L 217 915 Z M 247 887 L 252 887 L 253 886 L 262 886 L 265 887 L 267 889 L 267 901 L 269 900 L 269 889 L 267 885 L 254 885 L 252 887 Z M 201 885 L 198 885 L 197 886 L 197 901 L 198 901 L 198 888 L 200 887 Z M 256 844 L 269 844 L 271 846 L 286 846 L 287 844 L 304 844 L 305 846 L 321 846 L 322 844 L 338 844 L 339 846 L 355 846 L 356 844 L 373 844 L 374 846 L 409 846 L 410 844 L 427 844 L 429 846 L 444 846 L 446 844 L 462 844 L 463 846 L 479 846 L 480 844 L 496 844 L 498 846 L 511 846 L 513 845 L 513 834 L 498 834 L 497 833 L 494 833 L 493 835 L 480 835 L 479 834 L 451 835 L 450 833 L 428 834 L 427 835 L 415 835 L 414 833 L 406 833 L 405 834 L 394 834 L 393 833 L 392 835 L 391 835 L 390 833 L 389 834 L 374 834 L 373 833 L 372 835 L 356 835 L 355 834 L 325 835 L 324 833 L 321 833 L 320 834 L 305 834 L 304 835 L 288 835 L 286 833 L 284 834 L 271 834 L 270 835 L 259 835 L 258 834 L 258 835 L 510 835 L 512 837 L 512 842 L 510 844 Z M 217 828 L 217 833 L 215 834 L 215 850 L 217 851 L 217 867 L 215 868 L 215 882 L 213 884 L 216 884 L 217 886 L 219 880 L 218 880 L 216 877 L 216 868 L 217 867 L 217 851 L 216 850 Z M 266 799 L 266 801 L 267 800 L 600 800 L 601 801 L 601 807 L 600 808 L 594 808 L 600 808 L 601 809 L 601 813 L 601 810 L 603 808 L 603 800 L 601 798 L 600 798 L 599 800 L 582 800 L 581 798 L 565 798 L 564 800 L 547 800 L 546 798 L 531 798 L 530 800 L 514 800 L 513 798 L 497 798 L 496 800 L 480 800 L 479 798 L 463 798 L 462 800 L 446 800 L 445 798 L 428 798 L 427 800 L 410 800 L 409 798 L 391 798 L 390 800 L 374 800 L 373 798 L 338 798 L 337 800 L 319 800 L 318 798 L 302 798 L 301 800 L 284 800 L 283 798 L 268 798 L 267 795 L 267 798 Z M 217 783 L 215 783 L 215 794 L 211 800 L 193 800 L 192 798 L 176 798 L 175 800 L 158 800 L 157 798 L 154 798 L 152 799 L 151 801 L 151 808 L 152 810 L 153 809 L 153 801 L 154 800 L 216 800 L 216 784 Z M 254 730 L 254 754 L 255 751 L 254 748 L 256 747 L 256 744 L 259 735 L 257 736 L 256 735 L 256 731 Z M 208 661 L 206 662 L 206 678 L 208 678 L 209 681 L 212 682 L 215 679 L 214 679 L 213 677 L 216 674 L 211 679 L 208 678 Z M 353 652 L 350 656 L 347 658 L 350 657 Z M 219 645 L 218 645 L 218 648 L 217 649 L 218 661 L 226 654 L 226 652 Z M 337 641 L 336 642 L 338 643 L 339 642 Z M 222 638 L 223 640 L 231 647 L 236 643 L 230 644 L 228 642 L 228 638 L 229 637 L 239 637 L 240 638 L 239 640 L 241 638 L 240 637 L 224 637 Z M 222 628 L 223 629 L 228 629 L 228 627 L 225 627 L 224 626 Z M 228 622 L 229 624 L 232 624 L 234 626 L 238 626 L 240 629 L 241 629 L 231 619 Z M 548 617 L 549 623 L 551 623 L 550 622 L 550 618 Z M 208 609 L 206 610 L 206 621 L 207 622 L 207 625 L 206 626 L 206 643 L 208 643 Z M 243 606 L 236 613 L 236 615 L 244 622 L 244 606 Z M 218 605 L 217 607 L 217 621 L 218 623 L 226 615 L 225 612 Z M 219 614 L 221 613 L 222 615 L 220 616 Z M 217 607 L 219 606 L 221 609 L 218 610 Z M 465 602 L 465 607 L 467 607 L 467 603 L 468 602 Z M 447 607 L 452 606 L 453 604 L 456 605 L 458 604 L 457 602 L 448 602 L 448 606 Z M 221 599 L 222 600 L 223 599 L 229 599 L 230 601 L 233 602 L 233 604 L 230 605 L 229 607 L 223 602 L 230 609 L 233 608 L 240 600 L 239 599 Z M 267 592 L 263 595 L 256 595 L 254 596 L 254 722 L 254 714 L 256 713 L 256 696 L 254 695 L 254 679 L 256 678 L 256 662 L 254 661 L 254 644 L 256 643 L 256 627 L 254 626 L 254 610 L 256 608 L 256 600 L 259 597 L 263 597 Z M 462 591 L 460 595 L 461 597 L 465 597 L 463 595 L 464 592 Z M 206 575 L 206 591 L 208 591 L 208 575 Z M 272 565 L 272 587 L 269 591 L 272 591 L 274 587 L 274 575 L 272 574 Z M 265 566 L 259 556 L 259 557 L 257 558 L 262 565 L 262 567 L 260 569 L 248 569 L 247 571 L 241 571 L 240 570 L 240 571 L 262 571 L 265 570 Z M 467 555 L 465 561 L 464 578 L 464 575 L 466 574 L 467 563 L 469 558 L 467 557 Z M 462 555 L 462 557 L 459 558 L 458 574 L 460 574 L 460 571 L 461 570 Z M 450 555 L 451 567 L 452 568 L 452 578 L 452 575 L 454 574 L 454 568 L 453 567 L 453 558 L 451 558 Z M 444 555 L 446 556 L 445 558 L 443 558 L 445 562 L 445 570 L 446 571 L 446 574 L 448 574 L 446 555 Z M 240 557 L 245 553 L 247 553 L 248 551 L 255 551 L 258 554 L 255 551 L 242 551 L 240 552 Z M 262 548 L 269 558 L 271 563 L 269 559 L 270 556 L 267 552 L 267 550 L 268 549 L 283 549 L 284 547 L 301 547 L 302 549 L 318 549 L 320 547 L 337 547 L 338 549 L 354 549 L 355 547 L 372 547 L 373 549 L 390 549 L 391 547 L 409 547 L 410 549 L 428 549 L 430 547 L 437 547 L 262 547 Z M 263 548 L 265 547 L 266 550 L 264 551 Z M 104 541 L 104 546 L 105 548 L 111 550 L 111 557 L 113 558 L 113 574 L 111 575 L 111 584 L 112 585 L 121 585 L 121 584 L 114 584 L 113 583 L 113 552 L 114 551 L 121 551 L 122 552 L 122 575 L 123 574 L 125 575 L 125 552 L 126 551 L 139 551 L 140 552 L 140 574 L 141 575 L 140 585 L 143 585 L 144 586 L 152 586 L 153 583 L 153 575 L 155 574 L 155 558 L 153 557 L 153 552 L 152 551 L 145 551 L 144 552 L 144 557 L 141 558 L 139 551 L 139 548 L 140 547 L 157 547 L 158 549 L 175 549 L 176 547 L 193 547 L 194 549 L 204 549 L 206 551 L 206 557 L 208 557 L 208 548 L 206 547 L 107 547 L 106 546 L 106 540 Z M 141 559 L 144 560 L 144 574 L 143 575 L 140 574 L 140 560 Z M 145 551 L 152 551 L 153 552 L 153 583 L 152 584 L 145 584 L 144 583 L 144 552 Z M 122 548 L 125 549 L 125 557 L 124 558 L 122 557 L 122 551 L 121 550 Z M 391 537 L 391 538 L 409 538 L 409 537 Z M 269 532 L 263 538 L 265 538 L 265 536 Z M 353 531 L 356 535 L 356 538 L 359 538 L 356 536 Z M 184 531 L 184 538 L 196 538 Z M 176 530 L 176 538 L 177 538 L 177 530 Z M 154 530 L 153 536 L 154 538 L 157 538 L 157 530 Z M 141 530 L 140 536 L 141 538 L 143 538 L 143 530 Z M 123 530 L 122 534 L 123 535 L 123 538 L 125 538 L 125 531 Z M 229 529 L 224 533 L 220 538 L 229 538 L 228 537 L 228 531 Z M 565 538 L 556 531 L 545 525 L 544 527 L 542 526 L 554 533 L 563 540 L 563 546 L 562 547 L 477 547 L 475 549 L 475 553 L 473 555 L 471 555 L 471 557 L 476 556 L 477 555 L 477 552 L 480 549 L 490 549 L 491 547 L 509 547 L 510 549 L 526 549 L 528 547 L 545 547 L 546 549 L 562 549 L 563 547 L 563 540 L 565 539 Z M 527 525 L 527 529 L 532 531 L 537 535 L 536 537 L 527 536 L 527 538 L 532 538 L 533 539 L 546 538 L 542 534 L 532 529 Z M 517 523 L 511 527 L 500 538 L 503 539 L 514 539 L 509 539 L 507 535 L 508 534 L 508 530 L 515 524 L 517 525 L 517 538 Z M 340 523 L 325 538 L 336 538 L 336 537 L 333 537 L 332 534 L 336 531 L 336 527 Z M 289 523 L 289 538 L 301 538 L 302 539 L 301 538 L 302 535 L 306 538 Z M 290 531 L 293 530 L 298 534 L 298 536 L 297 537 L 292 536 L 290 534 Z M 440 538 L 464 538 L 465 539 L 468 538 L 469 539 L 474 539 L 469 539 L 468 537 L 459 537 L 458 536 L 450 536 L 448 537 L 447 536 L 447 533 L 448 532 L 451 532 L 458 525 L 468 533 L 468 532 L 470 531 L 477 538 L 467 528 L 459 522 L 456 523 Z M 388 531 L 389 530 L 392 531 L 398 525 L 400 525 L 409 533 L 409 532 L 411 531 L 417 538 L 418 538 L 400 522 L 398 522 L 395 524 Z M 468 521 L 477 530 L 487 538 L 489 538 L 495 534 L 509 521 L 490 521 L 490 522 L 499 522 L 502 523 L 503 526 L 494 533 L 489 535 L 486 534 L 479 528 L 475 523 L 470 523 L 469 521 Z M 449 521 L 448 521 L 447 523 L 441 523 L 441 525 L 430 534 L 428 538 L 420 531 L 427 538 L 430 538 Z M 352 521 L 352 522 L 368 537 L 370 538 L 374 535 L 373 535 L 372 533 L 369 534 L 365 531 L 358 523 L 355 523 L 354 521 Z M 333 521 L 332 521 L 331 523 L 325 523 L 325 525 L 320 529 L 320 533 L 319 534 Z M 302 521 L 302 522 L 319 522 L 319 521 Z M 443 520 L 409 521 L 417 529 L 412 524 L 413 522 L 428 522 L 429 520 Z M 358 520 L 372 520 L 373 522 L 385 522 L 386 524 L 380 530 L 389 521 Z M 249 520 L 252 536 L 267 525 L 264 524 L 254 531 L 252 528 L 252 523 L 250 523 Z M 155 522 L 156 523 L 184 523 L 185 524 L 185 523 L 187 522 L 184 521 L 176 521 L 175 523 L 159 523 L 157 520 Z M 123 521 L 119 520 L 118 521 L 107 521 L 106 522 L 107 523 L 119 523 Z M 240 519 L 232 526 L 235 523 L 238 522 L 241 524 Z M 487 512 L 490 513 L 521 513 L 529 517 L 540 525 L 539 523 L 541 522 L 528 514 L 527 515 L 524 515 L 521 513 L 509 513 L 508 511 L 492 511 L 490 510 L 489 512 Z M 267 522 L 270 523 L 283 513 L 301 513 L 302 512 L 304 513 L 374 513 L 375 512 L 372 510 L 373 511 L 372 513 L 355 513 L 354 511 L 337 511 L 336 513 L 319 513 L 318 511 L 303 511 L 302 510 L 301 513 L 284 513 L 283 512 L 280 512 Z M 467 512 L 461 511 L 450 507 L 450 512 L 449 513 L 429 513 L 428 511 L 411 511 L 409 513 L 392 513 L 459 513 L 460 512 Z M 462 505 L 465 505 L 474 508 L 469 507 L 468 505 Z M 374 505 L 390 512 L 390 509 L 388 509 L 380 505 Z M 214 504 L 212 505 L 211 508 L 211 522 L 209 523 L 208 532 L 205 533 L 194 526 L 194 527 L 192 528 L 208 537 L 210 533 L 210 525 L 212 519 L 212 512 L 213 511 L 213 506 Z M 153 503 L 147 509 L 140 514 L 140 517 L 154 506 Z M 429 501 L 431 504 L 442 504 Z M 225 501 L 223 501 L 220 529 L 222 527 L 220 526 L 220 523 L 221 522 L 225 522 L 226 523 L 225 525 L 236 514 L 232 508 Z M 225 507 L 231 508 L 234 511 L 235 515 L 230 520 L 229 520 L 228 518 L 224 521 L 223 520 L 223 513 Z M 223 502 L 225 501 L 227 504 L 224 505 Z M 175 501 L 158 518 L 172 504 L 175 504 Z M 248 496 L 248 498 L 246 499 L 247 509 L 247 505 L 249 504 Z M 352 495 L 356 496 L 363 500 L 365 500 L 367 502 L 372 504 L 372 502 L 370 500 L 364 497 L 362 497 L 357 494 Z M 428 495 L 453 502 L 451 502 L 448 498 L 438 496 L 435 494 L 429 493 Z M 391 490 L 392 493 L 409 497 L 409 495 L 406 495 Z M 400 487 L 412 490 L 410 490 L 409 488 L 407 487 Z M 165 487 L 164 488 L 159 488 L 157 494 Z M 335 487 L 342 490 L 338 488 L 339 486 Z M 235 485 L 235 486 L 233 487 L 233 491 L 234 492 L 234 495 L 233 496 L 230 494 L 230 495 L 228 496 L 225 493 L 237 504 L 236 493 L 235 492 Z M 193 482 L 178 497 L 188 487 L 192 486 L 193 485 Z M 372 479 L 375 479 L 390 484 L 390 482 L 376 477 L 373 477 Z M 297 475 L 300 476 L 302 478 L 302 480 L 312 485 L 319 486 L 320 489 L 322 489 L 324 491 L 326 491 L 335 496 L 338 494 L 336 494 Z M 335 474 L 336 474 L 338 477 L 347 480 L 350 480 L 351 481 L 357 480 L 351 479 L 347 477 L 343 477 Z M 194 472 L 190 474 L 156 501 L 161 504 L 162 506 L 159 509 L 157 508 L 145 520 L 140 521 L 140 523 L 146 522 Z M 174 487 L 175 486 L 178 486 L 179 488 L 176 490 Z M 341 470 L 344 470 L 355 474 L 354 471 L 351 470 Z M 186 470 L 182 470 L 176 475 L 176 478 Z M 241 469 L 242 476 L 243 477 L 244 489 L 244 488 L 246 487 L 245 476 L 243 470 Z M 219 469 L 217 470 L 217 473 L 215 478 L 216 493 L 216 485 L 217 484 L 218 471 Z M 312 470 L 315 471 L 322 470 L 319 470 L 318 469 L 315 470 L 314 468 L 314 469 Z M 280 470 L 283 471 L 284 469 L 287 470 L 282 468 L 282 469 Z M 211 463 L 194 480 L 205 469 L 209 469 L 211 467 Z M 317 463 L 320 463 L 338 469 L 336 468 L 336 466 L 324 462 L 321 462 L 320 461 L 319 463 Z M 230 461 L 228 468 L 228 475 L 231 471 Z M 281 459 L 284 460 L 284 461 L 282 462 L 298 470 L 300 470 L 307 474 L 318 478 L 320 480 L 318 476 L 306 470 L 301 471 L 300 470 L 300 465 L 301 464 L 298 464 Z M 272 457 L 278 460 L 279 458 Z M 221 453 L 212 461 L 219 454 L 221 455 L 221 458 Z M 207 453 L 203 453 L 198 458 L 194 460 L 194 464 L 192 466 Z M 239 449 L 240 452 L 247 452 L 248 455 L 264 463 L 267 461 L 265 461 L 254 455 L 252 455 L 243 450 Z M 263 448 L 274 450 L 278 452 L 281 452 L 303 459 L 302 459 L 300 456 L 298 456 L 292 453 L 284 453 L 283 451 L 281 450 L 274 449 L 266 446 L 265 448 Z M 235 434 L 237 436 L 237 439 L 238 440 L 247 443 L 247 440 L 242 439 Z M 230 431 L 227 429 L 223 431 L 221 434 L 222 434 L 223 436 L 226 432 Z" fill="#d7c19a" fill-rule="evenodd"/>
  <path d="M 236 934 L 236 935 L 252 935 L 252 934 Z M 202 934 L 202 935 L 218 935 L 218 934 Z M 283 919 L 282 919 L 282 933 L 281 934 L 271 934 L 270 935 L 280 935 L 282 934 L 283 932 Z M 182 919 L 182 933 L 184 935 L 189 935 L 189 934 L 185 934 L 183 932 L 183 919 Z M 218 911 L 218 915 L 235 915 L 235 911 Z M 268 902 L 267 902 L 267 910 L 266 911 L 253 911 L 253 915 L 269 915 L 269 914 L 266 913 L 268 910 Z M 198 902 L 197 902 L 197 909 L 199 913 L 198 914 L 190 914 L 190 915 L 201 915 L 201 911 L 198 910 Z M 247 886 L 252 886 L 253 885 L 247 885 Z M 202 885 L 202 886 L 216 886 L 216 885 Z M 215 851 L 215 867 L 216 867 L 216 851 Z M 480 845 L 480 846 L 497 846 L 496 845 Z M 445 846 L 458 846 L 459 845 L 462 846 L 462 845 L 446 845 Z M 356 846 L 373 845 L 356 845 Z M 322 845 L 322 846 L 324 845 L 337 845 L 338 846 L 338 845 Z M 287 845 L 287 846 L 289 845 L 302 845 L 304 846 L 304 845 Z M 256 845 L 256 846 L 265 846 L 266 845 L 270 846 L 269 845 Z M 445 834 L 462 834 L 463 833 L 496 834 L 493 833 L 451 833 L 450 834 Z M 410 834 L 442 833 L 426 833 L 425 834 L 423 833 L 411 834 L 410 833 Z M 322 834 L 338 834 L 339 833 L 355 833 L 356 834 L 389 833 L 392 834 L 393 833 L 405 833 L 325 833 Z M 287 833 L 288 834 L 320 833 L 302 833 L 301 834 L 299 833 Z M 259 834 L 284 833 L 269 833 L 268 834 L 259 833 Z M 214 828 L 216 830 L 215 833 L 216 833 L 216 828 Z M 582 798 L 582 799 L 599 799 L 599 798 Z M 547 798 L 547 799 L 564 799 L 564 798 L 562 799 Z M 514 798 L 514 799 L 530 799 L 530 798 L 523 798 L 522 799 Z M 480 798 L 480 799 L 496 799 L 496 798 L 495 799 Z M 446 798 L 446 799 L 462 799 L 462 798 L 460 799 L 450 799 L 449 798 Z M 410 798 L 410 799 L 427 799 L 427 798 L 418 798 L 417 799 L 415 798 Z M 374 798 L 374 799 L 390 799 L 390 798 Z M 319 798 L 319 799 L 337 799 L 337 798 L 327 798 L 326 799 Z M 284 798 L 284 799 L 301 799 L 301 798 L 293 798 L 292 799 L 285 799 Z M 193 798 L 193 799 L 211 799 L 211 798 Z M 158 798 L 158 799 L 175 799 L 175 798 L 162 798 L 161 799 Z M 255 714 L 254 729 L 256 730 L 255 729 L 255 715 L 256 714 Z M 255 679 L 255 695 L 256 695 L 255 692 L 255 680 L 256 679 Z M 206 679 L 208 682 L 210 682 L 208 681 L 208 679 Z M 216 675 L 213 678 L 216 679 Z M 350 646 L 345 651 L 346 650 L 348 651 L 350 649 L 349 648 Z M 359 645 L 362 648 L 363 647 L 365 648 L 361 644 Z M 346 644 L 345 645 L 343 644 L 342 645 L 343 647 Z M 255 644 L 255 661 L 256 661 L 255 659 L 255 646 L 256 644 Z M 208 644 L 206 644 L 207 646 L 207 659 L 206 661 L 208 660 Z M 342 639 L 339 640 L 340 641 Z M 229 638 L 229 639 L 234 639 L 235 640 L 234 642 L 237 642 L 239 638 Z M 338 634 L 335 637 L 333 637 L 334 638 L 337 636 Z M 225 625 L 225 626 L 228 626 L 229 629 L 239 629 L 238 627 L 230 628 L 228 626 L 228 623 Z M 365 621 L 364 622 L 364 629 L 365 630 Z M 451 611 L 451 612 L 461 612 L 461 611 Z M 341 612 L 343 613 L 345 611 L 344 612 L 342 611 Z M 256 609 L 255 610 L 255 626 L 256 626 L 256 618 L 255 617 L 255 611 Z M 218 607 L 218 609 L 221 609 Z M 340 604 L 336 608 L 338 609 L 341 606 Z M 223 600 L 223 601 L 229 606 L 228 603 L 229 600 Z M 271 592 L 268 592 L 265 596 Z M 208 592 L 206 592 L 207 593 L 207 605 L 206 606 L 206 609 L 208 608 Z M 466 575 L 464 576 L 466 580 L 466 586 L 463 591 L 465 591 L 467 587 Z M 453 578 L 459 578 L 460 575 L 457 576 L 453 575 Z M 446 575 L 447 577 L 446 586 L 451 595 L 451 597 L 454 597 L 447 586 L 448 575 Z M 155 575 L 154 575 L 154 583 L 153 585 L 154 585 L 155 583 Z M 122 576 L 122 585 L 123 584 L 125 585 L 139 585 L 139 584 L 136 584 L 135 585 L 128 585 L 125 583 L 125 576 L 124 575 Z M 269 558 L 271 560 L 273 565 L 273 574 L 274 574 L 273 573 L 273 561 L 271 558 Z M 206 558 L 207 559 L 207 572 L 206 574 L 208 574 L 208 558 Z M 111 558 L 111 574 L 112 574 L 112 558 Z M 242 557 L 240 558 L 240 569 L 241 570 L 247 570 L 247 569 L 244 570 L 241 567 L 241 558 Z M 467 556 L 468 557 L 471 556 L 470 555 Z M 451 555 L 451 557 L 454 557 L 455 556 L 461 557 L 462 556 L 461 555 Z M 248 552 L 248 553 L 253 553 L 257 557 L 259 557 L 255 552 Z M 527 549 L 530 548 L 545 549 L 545 548 L 528 548 Z M 491 548 L 491 549 L 497 549 L 498 548 L 507 548 L 509 549 L 509 548 Z M 429 549 L 433 549 L 436 552 L 436 555 L 438 557 L 445 557 L 445 556 L 443 555 L 438 555 L 437 554 L 437 548 L 430 548 Z M 391 548 L 391 549 L 393 548 L 409 549 L 409 548 Z M 355 548 L 355 549 L 357 548 L 360 549 L 372 549 L 372 548 Z M 319 549 L 337 549 L 337 548 L 320 548 Z M 284 548 L 284 549 L 285 548 L 301 549 L 301 548 Z M 263 548 L 265 552 L 265 548 Z M 176 548 L 176 549 L 177 548 L 193 549 L 193 548 Z M 157 548 L 140 548 L 140 551 L 141 552 L 141 574 L 143 574 L 143 552 L 145 550 L 152 550 L 154 552 L 154 557 L 155 557 L 155 550 L 157 549 Z M 123 548 L 122 550 L 123 551 L 123 557 L 124 557 L 124 551 L 125 550 Z M 565 540 L 564 540 L 564 547 L 563 549 L 564 549 L 565 547 Z M 158 536 L 158 538 L 175 538 L 175 536 L 174 537 L 160 537 Z M 302 535 L 301 537 L 304 538 Z M 469 532 L 471 535 L 469 538 L 476 538 Z M 410 532 L 411 535 L 410 538 L 416 538 L 416 537 Z M 449 531 L 448 533 L 448 536 L 449 537 L 448 535 Z M 390 530 L 383 536 L 383 538 L 390 538 L 389 536 Z M 158 530 L 158 532 L 160 531 L 174 531 L 175 532 L 175 530 Z M 524 525 L 524 538 L 526 538 L 526 535 L 525 534 L 526 525 Z M 516 525 L 509 530 L 509 533 L 511 530 L 513 529 L 515 530 L 515 534 L 512 537 L 509 537 L 509 538 L 516 538 Z M 281 525 L 270 532 L 266 536 L 266 538 L 281 538 L 282 536 L 282 527 Z M 280 530 L 280 534 L 278 536 L 275 537 L 271 537 L 270 535 L 277 529 Z M 503 524 L 501 524 L 501 525 L 491 533 L 491 534 L 500 528 Z M 539 523 L 544 526 L 542 523 Z M 386 523 L 379 523 L 380 523 L 381 525 L 373 533 L 373 535 Z M 337 527 L 337 530 L 340 526 L 343 526 L 353 535 L 352 537 L 344 537 L 343 538 L 337 537 L 337 538 L 355 538 L 357 537 L 357 536 L 343 523 L 341 523 Z M 266 525 L 269 523 L 266 523 Z M 239 523 L 235 524 L 231 527 L 229 532 L 237 525 L 239 525 L 241 530 L 241 535 L 239 537 L 231 537 L 229 536 L 230 538 L 242 538 L 242 530 L 241 529 L 241 525 Z M 221 527 L 226 523 L 221 523 Z M 184 523 L 193 528 L 192 525 L 188 523 Z M 106 523 L 105 523 L 105 538 L 104 540 L 106 539 Z M 411 522 L 419 530 L 428 537 L 428 535 L 417 525 L 417 523 L 412 523 Z M 470 521 L 470 522 L 489 522 L 489 521 Z M 429 521 L 429 522 L 447 522 L 447 521 Z M 355 521 L 355 522 L 372 522 L 372 521 Z M 320 521 L 320 522 L 331 522 L 331 521 Z M 299 521 L 299 523 L 314 537 L 318 535 L 319 530 L 317 533 L 314 534 L 306 528 L 301 521 Z M 139 515 L 133 520 L 132 522 L 140 522 L 138 520 Z M 509 511 L 509 512 L 521 512 L 526 515 L 527 514 L 524 512 Z M 319 511 L 319 512 L 336 512 L 336 511 L 329 511 L 328 512 L 321 512 Z M 391 510 L 391 512 L 409 512 L 410 511 L 393 511 Z M 301 510 L 299 511 L 287 511 L 284 512 L 301 512 Z M 230 507 L 229 509 L 232 512 L 232 514 L 229 517 L 229 520 L 234 515 L 234 512 Z M 429 511 L 429 512 L 449 512 L 449 507 L 443 505 L 434 505 L 440 505 L 446 507 L 448 509 L 448 511 L 447 512 L 444 512 L 443 511 L 431 512 Z M 248 505 L 249 519 L 250 522 L 252 522 L 249 515 L 249 505 Z M 162 505 L 160 505 L 158 507 L 158 509 Z M 373 502 L 373 504 L 378 504 L 375 504 Z M 224 501 L 223 504 L 227 504 Z M 157 501 L 153 504 L 157 503 Z M 450 499 L 451 501 L 460 504 L 468 504 L 469 506 L 478 508 L 482 510 L 489 511 L 489 510 L 485 510 L 481 508 L 478 508 L 475 506 L 454 501 Z M 410 496 L 410 497 L 412 498 L 419 499 L 421 501 L 424 501 L 429 503 L 428 501 Z M 337 495 L 338 497 L 349 501 L 353 504 L 364 509 L 363 511 L 355 511 L 355 512 L 373 512 L 367 508 L 365 508 L 360 505 L 356 505 L 354 502 L 348 500 L 339 495 Z M 157 490 L 154 494 L 144 502 L 138 505 L 130 513 L 123 518 L 122 521 L 141 506 L 142 504 L 145 503 L 157 493 Z M 410 488 L 410 489 L 428 494 L 427 492 L 422 492 Z M 245 488 L 247 502 L 247 490 L 246 488 Z M 216 488 L 215 488 L 214 490 L 214 499 L 212 504 L 214 503 L 215 489 Z M 339 487 L 339 488 L 354 495 L 353 493 L 349 492 L 341 487 Z M 176 490 L 179 487 L 175 487 Z M 193 486 L 190 488 L 188 488 L 176 500 L 176 504 L 175 505 L 172 505 L 156 522 L 175 522 L 175 521 L 161 522 L 160 519 L 176 504 L 177 501 Z M 391 482 L 391 484 L 394 485 L 404 486 L 394 484 Z M 355 480 L 356 482 L 365 485 L 368 485 L 371 487 L 384 489 L 390 492 L 390 490 L 383 488 L 379 488 L 378 487 L 373 487 L 372 485 L 366 484 Z M 233 480 L 231 481 L 229 486 L 226 488 L 225 491 L 229 496 L 227 490 L 231 484 L 234 486 Z M 320 477 L 321 480 L 325 481 L 334 486 L 337 486 Z M 175 476 L 170 481 L 160 487 L 166 486 L 170 482 L 175 479 Z M 355 472 L 356 474 L 359 474 L 363 476 L 372 478 L 371 476 L 367 476 Z M 320 470 L 320 472 L 330 475 L 334 475 L 337 477 L 337 476 L 334 474 L 331 474 Z M 208 470 L 205 470 L 194 481 L 194 484 L 195 482 Z M 337 467 L 337 468 L 339 469 L 346 469 Z M 301 465 L 301 470 L 304 470 L 301 468 L 302 466 L 309 469 L 316 469 Z M 266 462 L 266 463 L 269 465 L 271 465 L 278 469 L 283 469 L 284 471 L 290 473 L 292 475 L 294 475 L 301 479 L 300 477 L 288 471 L 286 471 L 273 464 Z M 193 461 L 191 464 L 183 469 L 187 469 L 193 464 Z M 278 459 L 281 461 L 283 461 L 283 460 Z M 301 456 L 301 457 L 304 459 L 311 460 L 315 462 L 319 462 L 319 461 L 303 458 Z M 220 454 L 212 462 L 212 465 L 217 459 L 219 460 L 218 468 L 217 469 L 219 468 Z M 244 453 L 247 455 L 247 453 Z M 239 452 L 240 461 L 241 462 L 241 468 L 243 469 L 241 463 L 241 453 Z M 248 441 L 248 443 L 265 447 L 265 446 L 254 444 Z M 222 435 L 221 435 L 220 439 L 206 452 L 204 452 L 208 452 L 216 446 L 221 441 Z M 229 429 L 229 430 L 233 431 L 237 435 L 239 435 L 234 430 L 230 430 Z" fill="#faf3d5" fill-rule="evenodd"/>
</svg>